<svg width="1086.82" height="789.35" xmlns="http://www.w3.org/2000/svg" xmlns:xlink="http://www.w3.org/1999/xlink">
 <defs>
  <linearGradient y2="-0.00004" x2="0.49997" y1="1" x1="0.49997" id="22371c7b-1b7b-4aab-a60b-8a215b8ce92d">
   <stop stop-opacity="0.25" stop-color="gray" offset="0"/>
   <stop stop-opacity="0.12" stop-color="gray" offset="0.54"/>
   <stop stop-opacity="0.1" stop-color="gray" offset="1"/>
  </linearGradient>
  <linearGradient xlink:href="#22371c7b-1b7b-4aab-a60b-8a215b8ce92d" y2="310.18" x2="357.66" y1="752.53" x1="357.66" id="d4a1e37c-1d20-4442-be38-826149171c3f"/>
  <linearGradient xlink:href="#22371c7b-1b7b-4aab-a60b-8a215b8ce92d" y2="442.62" x2="211.31" y1="788.29" x1="211.31" id="52583eb6-2034-4198-bc7c-1e2be9031359"/>
  <linearGradient xlink:href="#22371c7b-1b7b-4aab-a60b-8a215b8ce92d" y2="300.43" x2="917.3" y1="444.63" x1="917.3" id="dd1dbd67-1519-4b37-9c1d-ca278a6685f4"/>
 </defs>
 <title>in sync</title>
 <g>
  <title>background</title>
  <rect fill="none" id="canvas_background" height="602" width="802" y="-1" x="-1"/>
 </g>
 <g>
  <title>Layer 1</title>
  <path id="svg_15" stroke-width="2" stroke-miterlimit="10" stroke="#535461" fill="none" d="m256.31,314.57s-12.81,28.73 -71.9,18.68"/>
  <path id="svg_16" stroke-width="2" stroke-miterlimit="10" stroke="#535461" fill="none" d="m174.55955,420.98s45.47,-45.48 31.57,-62"/>
  <rect id="svg_32" fill="#535461" ry="23.26" rx="23.26" height="434.39" width="699.44" y="118.35" x="282.74"/>
  <rect id="svg_33" fill="#f1f1f4" height="354.87" width="668.52" y="181.67" x="297.47"/>
  <circle id="svg_34" fill="#fff" r="5.89" cy="150.74" cx="631.73"/>
  <path id="svg_35" fill="#535461" d="m735.49054,537.27l-23,23.56l-162,0l-20.76,-23.56l-329.65,0a7.36,7.36 0 0 0 -7.36,7.36l0,5.94a41.18,41.18 0 0 0 41.23,41.18l795.2,0a41.18,41.18 0 0 0 41.18,-41.18l0,-5.94a7.36,7.36 0 0 0 -7.36,-7.36l-327.48,0z"/>
  <rect id="svg_36" fill="#fff" height="137.74" width="182.77" y="208.71" x="338.3"/>
  <rect id="svg_37" opacity="0.2" fill="#6c63ff" height="34.43" width="60.92" y="220.63" x="356.18"/>
  <rect id="svg_38" fill="#e6e8ec" height="7.95" width="71.52" y="220.63" x="431.67"/>
  <rect id="svg_39" fill="#e6e8ec" height="7.95" width="50.33" y="233.87" x="431.67"/>
  <rect id="svg_40" fill="#e6e8ec" height="7.95" width="71.52" y="247.11" x="431.67"/>
  <rect id="svg_41" fill="#e6e8ec" height="7.95" width="147.01" y="260.36" x="356.18"/>
  <rect id="svg_42" fill="#e6e8ec" height="7.95" width="147.01" y="273.6" x="356.18"/>
  <rect id="svg_43" fill="#e6e8ec" height="7.95" width="147.01" y="286.85" x="356.18"/>
  <rect id="svg_44" fill="#e6e8ec" height="7.95" width="135.09" y="300.09" x="356.18"/>
  <rect id="svg_45" fill="#e6e8ec" height="7.95" width="147.01" y="313.33" x="356.18"/>
  <rect id="svg_46" fill="#e6e8ec" height="7.95" width="147.01" y="326.58" x="356.18"/>
  <rect id="svg_47" fill="#fff" height="137.74" width="182.77" y="208.71" x="539.61"/>
  <rect id="svg_48" opacity="0.2" fill="#6c63ff" height="34.43" width="60.92" y="220.63" x="557.48"/>
  <rect id="svg_49" fill="#e6e8ec" height="7.95" width="71.52" y="220.63" x="632.98"/>
  <rect id="svg_50" fill="#e6e8ec" height="7.95" width="50.33" y="233.87" x="632.98"/>
  <rect id="svg_51" fill="#e6e8ec" height="7.95" width="71.52" y="247.11" x="632.98"/>
  <rect id="svg_52" fill="#e6e8ec" height="7.95" width="147.01" y="260.36" x="557.48"/>
  <rect id="svg_53" fill="#e6e8ec" height="7.95" width="147.01" y="273.6" x="557.48"/>
  <rect id="svg_54" fill="#e6e8ec" height="7.95" width="147.01" y="286.85" x="557.48"/>
  <rect id="svg_55" fill="#e6e8ec" height="7.95" width="135.09" y="300.09" x="557.48"/>
  <rect id="svg_56" fill="#e6e8ec" height="7.95" width="147.01" y="313.33" x="557.48"/>
  <rect id="svg_57" fill="#e6e8ec" height="7.95" width="147.01" y="326.58" x="557.48"/>
  <rect id="svg_58" fill="#fff" height="137.74" width="182.77" y="208.71" x="740.91"/>
  <rect id="svg_59" opacity="0.2" fill="#6c63ff" height="34.43" width="60.92" y="220.63" x="758.79"/>
  <rect id="svg_60" fill="#e6e8ec" height="7.95" width="71.52" y="220.63" x="834.28"/>
  <rect id="svg_61" fill="#e6e8ec" height="7.95" width="50.33" y="233.87" x="834.28"/>
  <rect id="svg_62" fill="#e6e8ec" height="7.95" width="71.52" y="247.11" x="834.28"/>
  <rect id="svg_63" fill="#e6e8ec" height="7.95" width="147.01" y="260.36" x="758.79"/>
  <rect id="svg_64" fill="#e6e8ec" height="7.95" width="147.01" y="273.6" x="758.79"/>
  <rect id="svg_65" fill="#e6e8ec" height="7.95" width="147.01" y="286.85" x="758.79"/>
  <rect id="svg_66" fill="#e6e8ec" height="7.95" width="135.09" y="300.09" x="758.79"/>
  <rect id="svg_67" fill="#e6e8ec" height="7.95" width="147.01" y="313.33" x="758.79"/>
  <rect id="svg_68" fill="#e6e8ec" height="7.95" width="147.01" y="326.58" x="758.79"/>
  <rect id="svg_69" fill="#fff" height="137.74" width="182.77" y="363.66" x="338.84054"/>
  <rect id="svg_70" opacity="0.2" fill="#6c63ff" height="34.43" width="60.92" y="375.58" x="356.18"/>
  <rect id="svg_71" fill="#e6e8ec" height="7.95" width="71.52" y="375.58" x="431.67"/>
  <rect id="svg_72" fill="#e6e8ec" height="7.95" width="50.33" y="388.83" x="431.67"/>
  <rect id="svg_73" fill="#e6e8ec" height="7.95" width="71.52" y="402.07" x="431.67"/>
  <rect id="svg_74" fill="#e6e8ec" height="7.95" width="147.01" y="415.31" x="356.18"/>
  <rect id="svg_75" fill="#e6e8ec" height="7.95" width="147.01" y="428.56" x="356.18"/>
  <rect id="svg_76" fill="#e6e8ec" height="7.95" width="147.01" y="441.8" x="356.18"/>
  <rect id="svg_77" fill="#e6e8ec" height="7.95" width="135.09" y="455.05" x="356.18"/>
  <rect id="svg_78" fill="#e6e8ec" height="7.95" width="147.01" y="468.29" x="356.18"/>
  <rect id="svg_79" fill="#e6e8ec" height="7.95" width="147.01" y="481.53" x="356.72054"/>
  <rect id="svg_80" fill="#fff" height="137.74" width="182.77" y="363.66" x="539.61"/>
  <rect id="svg_81" opacity="0.2" fill="#6c63ff" height="34.43" width="60.92" y="375.58" x="557.48"/>
  <rect id="svg_82" fill="#e6e8ec" height="7.95" width="71.52" y="375.58" x="632.98"/>
  <rect id="svg_83" fill="#e6e8ec" height="7.95" width="50.33" y="388.83" x="632.98"/>
  <rect id="svg_84" fill="#e6e8ec" height="7.95" width="71.52" y="402.07" x="632.98"/>
  <rect id="svg_85" fill="#e6e8ec" height="7.95" width="147.01" y="415.31" x="557.48"/>
  <rect id="svg_86" fill="#e6e8ec" height="7.95" width="147.01" y="428.56" x="557.48"/>
  <rect id="svg_87" fill="#e6e8ec" height="7.95" width="147.01" y="441.8" x="557.48"/>
  <rect id="svg_88" fill="#e6e8ec" height="7.95" width="135.09" y="455.05" x="557.48"/>
  <rect id="svg_89" fill="#e6e8ec" height="7.95" width="147.01" y="468.29" x="557.48"/>
  <rect id="svg_90" fill="#e6e8ec" height="7.95" width="147.01" y="481.53" x="557.48"/>
  <rect id="svg_91" opacity="0.1" height="137.74" width="182.77" y="363.66" x="740.91"/>
  <path id="svg_92" fill="url(#d4a1e37c-1d20-4442-be38-826149171c3f)" d="m442.61054,255.06l-282,0a25.83,25.83 0 0 0 -25.88,25.82l0,390.74a25.83,25.83 0 0 0 25.87,25.8l282,0a25.83,25.83 0 0 0 25.87,-25.8l0,-390.74a25.83,25.83 0 0 0 -25.86,-25.82z"/>
  <rect id="svg_93" fill="#535461" ry="20" rx="20" height="433.08" width="325.8" y="260.36" x="138.17"/>
  <rect id="svg_94" fill="#f1f1f4" height="351.15" width="292.69" y="301.33" x="154.72"/>
  <circle id="svg_95" fill="#fff" r="3.97" cy="280.23" cx="299.74"/>
  <circle id="svg_96" fill="#fff" r="11.92" cy="672.25" cx="299.74"/>
  <rect id="svg_97" fill="#fff" height="62.92" width="83.48" y="337.21" x="166.82955"/>
  <rect id="svg_98" opacity="0.2" fill="#6c63ff" height="15.73" width="27.83" y="342.66" x="175.54"/>
  <rect id="svg_99" fill="#e6e8ec" height="3.63" width="32.67" y="342.66" x="210.02"/>
  <rect id="svg_100" fill="#e6e8ec" height="3.63" width="22.99" y="348.71" x="210.02"/>
  <rect id="svg_101" fill="#e6e8ec" height="3.63" width="32.67" y="354.76" x="210.02"/>
  <rect id="svg_102" fill="#e6e8ec" height="3.63" width="67.15" y="360.81" x="175.54"/>
  <rect id="svg_103" fill="#e6e8ec" height="3.63" width="67.15" y="366.86" x="175.54"/>
  <rect id="svg_104" fill="#e6e8ec" height="3.63" width="67.15" y="372.91" x="175.54"/>
  <rect id="svg_105" fill="#e6e8ec" height="3.63" width="61.71" y="378.96" x="175.54"/>
  <rect id="svg_106" fill="#e6e8ec" height="3.63" width="67.15" y="385.01" x="174.99955"/>
  <rect id="svg_107" fill="#e6e8ec" height="3.63" width="67.15" y="391.06" x="174.99955"/>
  <rect id="svg_108" fill="#fff" height="62.92" width="83.48" y="337.21" x="258.78955"/>
  <rect id="svg_109" opacity="0.2" fill="#6c63ff" height="15.73" width="27.83" y="342.66" x="267.49"/>
  <rect id="svg_110" fill="#e6e8ec" height="3.63" width="32.67" y="342.66" x="301.98"/>
  <rect id="svg_111" fill="#e6e8ec" height="3.63" width="22.99" y="348.71" x="301.98"/>
  <rect id="svg_112" fill="#e6e8ec" height="3.63" width="32.67" y="354.76" x="301.98"/>
  <rect id="svg_113" fill="#e6e8ec" height="3.63" width="67.15" y="360.81" x="267.49"/>
  <rect id="svg_114" fill="#e6e8ec" height="3.63" width="67.15" y="366.86" x="267.49"/>
  <rect id="svg_115" fill="#e6e8ec" height="3.63" width="67.15" y="372.91" x="267.49"/>
  <rect id="svg_116" fill="#e6e8ec" height="3.63" width="61.71" y="378.96" x="267.49"/>
  <rect id="svg_117" fill="#e6e8ec" height="3.63" width="67.15" y="385.01" x="267.49"/>
  <rect id="svg_118" fill="#e6e8ec" height="3.63" width="67.15" y="391.06" x="267.49"/>
  <rect id="svg_119" fill="#fff" height="62.92" width="83.48" y="337.21" x="351.28"/>
  <rect id="svg_120" opacity="0.2" fill="#6c63ff" height="15.73" width="27.83" y="342.66" x="359.45"/>
  <rect id="svg_121" fill="#e6e8ec" height="3.63" width="32.67" y="342.66" x="393.93"/>
  <rect id="svg_122" fill="#e6e8ec" height="3.63" width="22.99" y="348.71" x="393.93"/>
  <rect id="svg_123" fill="#e6e8ec" height="3.63" width="32.67" y="354.76" x="393.93"/>
  <rect id="svg_124" fill="#e6e8ec" height="3.63" width="67.15" y="360.81" x="359.45"/>
  <rect id="svg_125" fill="#e6e8ec" height="3.63" width="67.15" y="366.86" x="359.45"/>
  <rect id="svg_126" fill="#e6e8ec" height="3.63" width="67.15" y="372.91" x="359.45"/>
  <rect id="svg_127" fill="#e6e8ec" height="3.63" width="61.71" y="378.96" x="359.45"/>
  <rect id="svg_128" fill="#e6e8ec" height="3.63" width="67.15" y="385.01" x="359.45"/>
  <rect id="svg_129" fill="#e6e8ec" height="3.63" width="67.15" y="391.06" x="359.45"/>
  <rect id="svg_130" fill="#fff" height="62.92" width="83.48" y="407.99" x="166.82955"/>
  <rect id="svg_131" opacity="0.2" fill="#6c63ff" height="15.73" width="27.83" y="413.44" x="174.99955"/>
  <rect id="svg_132" fill="#e6e8ec" height="3.63" width="32.67" y="413.44" x="209.47955"/>
  <rect id="svg_133" fill="#e6e8ec" height="3.63" width="22.99" y="419.49" x="209.47955"/>
  <rect id="svg_134" fill="#e6e8ec" height="3.63" width="32.67" y="425.54" x="209.47955"/>
  <rect id="svg_135" fill="#e6e8ec" height="3.63" width="67.15" y="431.59" x="174.99955"/>
  <rect id="svg_136" fill="#e6e8ec" height="3.63" width="67.15" y="437.64" x="174.99955"/>
  <rect id="svg_137" fill="#e6e8ec" height="3.63" width="67.15" y="443.69" x="174.99955"/>
  <rect id="svg_138" fill="#e6e8ec" height="3.63" width="61.71" y="449.74" x="174.99955"/>
  <rect id="svg_139" fill="#e6e8ec" height="3.63" width="67.15" y="455.79" x="174.99955"/>
  <rect id="svg_140" fill="#e6e8ec" height="3.63" width="67.15" y="461.84" x="174.99955"/>
  <rect id="svg_142" opacity="0.2" fill="#6c63ff" height="15.73" width="27.83" y="413.44" x="267.49"/>
  <rect id="svg_143" fill="#e6e8ec" height="3.63" width="32.67" y="413.44" x="301.98"/>
  <rect id="svg_144" fill="#e6e8ec" height="3.63" width="22.99" y="419.49" x="301.98"/>
  <rect id="svg_145" fill="#e6e8ec" height="3.63" width="32.67" y="425.54" x="301.98"/>
  <rect id="svg_146" fill="#e6e8ec" height="3.63" width="67.15" y="431.59" x="267.49"/>
  <rect id="svg_147" fill="#e6e8ec" height="3.63" width="67.15" y="437.64" x="267.49"/>
  <rect id="svg_148" fill="#e6e8ec" height="3.63" width="67.15" y="443.69" x="267.49"/>
  <rect id="svg_149" fill="#e6e8ec" height="3.63" width="61.71" y="449.74" x="267.49"/>
  <rect id="svg_150" fill="#e6e8ec" height="3.63" width="67.15" y="455.79" x="267.49"/>
  <rect id="svg_151" fill="#e6e8ec" height="3.63" width="67.15" y="461.84" x="267.49"/>
  <rect id="svg_152" fill="#fff" height="62.92" width="83.48" y="407.99" x="351.28"/>
  <rect id="svg_153" opacity="0.2" fill="#6c63ff" height="15.73" width="27.83" y="413.44" x="359.45"/>
  <rect id="svg_154" fill="#e6e8ec" height="3.63" width="32.67" y="413.44" x="393.93"/>
  <rect id="svg_155" fill="#e6e8ec" height="3.63" width="22.99" y="419.49" x="393.93"/>
  <rect id="svg_156" fill="#e6e8ec" height="3.63" width="32.67" y="425.54" x="393.93"/>
  <rect id="svg_157" fill="#e6e8ec" height="3.63" width="67.15" y="431.59" x="359.45"/>
  <rect id="svg_158" fill="#e6e8ec" height="3.63" width="67.15" y="437.64" x="359.45"/>
  <rect id="svg_159" fill="#e6e8ec" height="3.63" width="67.15" y="443.69" x="359.45"/>
  <rect id="svg_160" fill="#e6e8ec" height="3.63" width="61.71" y="449.74" x="359.45"/>
  <rect id="svg_161" fill="#e6e8ec" height="3.63" width="67.15" y="455.79" x="359.45"/>
  <rect id="svg_162" fill="#e6e8ec" height="3.63" width="67.15" y="461.84" x="359.45"/>
  <rect id="svg_163" fill="#fff" height="62.92" width="83.48" y="481.57" x="166.82955"/>
  <rect id="svg_164" opacity="0.2" fill="#6c63ff" height="15.73" width="27.83" y="487.02" x="174.99955"/>
  <rect id="svg_165" fill="#e6e8ec" height="3.63" width="32.67" y="487.02" x="209.47955"/>
  <rect id="svg_166" fill="#e6e8ec" height="3.63" width="22.99" y="493.07" x="209.47955"/>
  <rect id="svg_167" fill="#e6e8ec" height="3.63" width="32.67" y="499.12" x="209.47955"/>
  <rect id="svg_168" fill="#e6e8ec" height="3.63" width="67.15" y="505.17" x="174.99955"/>
  <rect id="svg_169" fill="#e6e8ec" height="3.63" width="67.15" y="511.22" x="174.99955"/>
  <rect id="svg_170" fill="#e6e8ec" height="3.63" width="67.15" y="517.27" x="174.99955"/>
  <rect id="svg_171" fill="#e6e8ec" height="3.63" width="61.71" y="523.32" x="175.54"/>
  <rect id="svg_172" fill="#e6e8ec" height="3.63" width="67.15" y="529.37" x="175.54"/>
  <rect id="svg_173" fill="#e6e8ec" height="3.63" width="67.15" y="535.42" x="175.54"/>
  <rect id="svg_174" fill="#fff" height="62.92" width="83.48" y="481.57" x="259.33"/>
  <rect id="svg_175" opacity="0.2" fill="#6c63ff" height="15.73" width="27.83" y="487.02" x="267.49"/>
  <rect id="svg_176" fill="#e6e8ec" height="3.63" width="32.67" y="487.02" x="301.98"/>
  <rect id="svg_177" fill="#e6e8ec" height="3.63" width="22.99" y="493.07" x="301.98"/>
  <rect id="svg_178" fill="#e6e8ec" height="3.63" width="32.67" y="499.12" x="301.98"/>
  <rect id="svg_179" fill="#e6e8ec" height="3.63" width="67.15" y="505.17" x="267.49"/>
  <rect id="svg_180" fill="#e6e8ec" height="3.63" width="67.15" y="511.22" x="267.49"/>
  <rect id="svg_181" fill="#e6e8ec" height="3.63" width="67.15" y="517.27" x="267.49"/>
  <rect id="svg_182" fill="#e6e8ec" height="3.63" width="61.71" y="523.32" x="267.49"/>
  <rect id="svg_183" fill="#e6e8ec" height="3.63" width="67.15" y="529.37" x="267.49"/>
  <rect id="svg_184" fill="#e6e8ec" height="3.63" width="67.15" y="535.42" x="267.49"/>
  <rect id="svg_185" fill="#fff" height="62.92" width="83.48" y="481.57" x="351.28"/>
  <rect id="svg_186" opacity="0.2" fill="#6c63ff" height="15.73" width="27.83" y="487.02" x="359.45"/>
  <rect id="svg_187" fill="#e6e8ec" height="3.63" width="32.67" y="487.02" x="393.93"/>
  <rect id="svg_188" fill="#e6e8ec" height="3.63" width="22.99" y="493.07" x="393.93"/>
  <rect id="svg_189" fill="#e6e8ec" height="3.63" width="32.67" y="499.12" x="393.93"/>
  <rect id="svg_190" fill="#e6e8ec" height="3.63" width="67.15" y="505.17" x="359.45"/>
  <rect id="svg_191" fill="#e6e8ec" height="3.63" width="67.15" y="511.22" x="359.45"/>
  <rect id="svg_192" fill="#e6e8ec" height="3.63" width="67.15" y="517.27" x="359.45"/>
  <rect id="svg_193" fill="#e6e8ec" height="3.63" width="61.71" y="523.32" x="359.45"/>
  <rect id="svg_194" fill="#e6e8ec" height="3.63" width="67.15" y="529.37" x="359.45"/>
  <rect id="svg_195" fill="#e6e8ec" height="3.63" width="67.15" y="535.42" x="359.45"/>
  <rect id="svg_196" fill="#fff" height="62.92" width="83.48" y="552.35" x="167.37"/>
  <rect id="svg_197" opacity="0.2" fill="#6c63ff" height="15.73" width="27.83" y="557.8" x="175.54"/>
  <rect id="svg_198" fill="#e6e8ec" height="3.63" width="32.67" y="557.8" x="210.02"/>
  <rect id="svg_199" fill="#e6e8ec" height="3.63" width="22.99" y="563.85" x="210.02"/>
  <rect id="svg_200" fill="#e6e8ec" height="3.63" width="32.67" y="569.9" x="210.02"/>
  <rect id="svg_201" fill="#e6e8ec" height="3.63" width="67.15" y="575.95" x="175.54"/>
  <rect id="svg_202" fill="#e6e8ec" height="3.63" width="67.15" y="582" x="175.54"/>
  <rect id="svg_203" fill="#e6e8ec" height="3.63" width="67.15" y="588.05" x="175.54"/>
  <rect id="svg_204" fill="#e6e8ec" height="3.63" width="61.71" y="594.1" x="175.54"/>
  <rect id="svg_205" fill="#e6e8ec" height="3.63" width="67.15" y="600.15" x="175.54"/>
  <rect id="svg_206" fill="#e6e8ec" height="3.63" width="67.15" y="606.2" x="175.54"/>
  <rect id="svg_207" fill="#fff" height="62.92" width="83.48" y="552.35" x="259.33"/>
  <rect id="svg_208" opacity="0.2" fill="#6c63ff" height="15.73" width="27.83" y="557.8" x="267.49"/>
  <rect id="svg_209" fill="#e6e8ec" height="3.63" width="32.67" y="557.8" x="301.98"/>
  <rect id="svg_210" fill="#e6e8ec" height="3.63" width="22.99" y="563.85" x="301.98"/>
  <rect id="svg_211" fill="#e6e8ec" height="3.63" width="32.67" y="569.9" x="301.98"/>
  <rect id="svg_212" fill="#e6e8ec" height="3.63" width="67.15" y="575.95" x="267.49"/>
  <rect id="svg_213" fill="#e6e8ec" height="3.63" width="67.15" y="582" x="267.49"/>
  <rect id="svg_214" fill="#e6e8ec" height="3.63" width="67.15" y="588.05" x="267.49"/>
  <rect id="svg_215" fill="#e6e8ec" height="3.63" width="61.71" y="594.1" x="267.49"/>
  <rect id="svg_216" fill="#e6e8ec" height="3.63" width="67.15" y="600.15" x="267.49"/>
  <rect id="svg_217" fill="#e6e8ec" height="3.63" width="67.15" y="606.2" x="267.49"/>
  <rect id="svg_218" opacity="0.1" height="62.92" width="83.48" y="552.35" x="351.28"/>
  <path id="svg_219" fill="url(#52583eb6-2034-4198-bc7c-1e2be9031359)" d="m226.57955,387.5l-144.8,0a14.32,14.32 0 0 0 -14.35,14.29l0,317.09a14.32,14.32 0 0 0 14.35,14.29l144.8,0a14.32,14.32 0 0 0 14.35,-14.29l0,-317.08a14.32,14.32 0 0 0 -14.35,-14.3z"/>
  <rect id="svg_220" fill="#535461" ry="11" rx="11" height="341.7" width="170.85" y="390.16" x="68.75955"/>
  <rect id="svg_221" fill="#f1f1f4" height="278.12" width="145.68" y="421.94" x="81.88"/>
  <circle id="svg_222" fill="#fff" r="1.32" cy="406.05" cx="136.95955"/>
  <rect id="svg_223" fill="#fff" ry="1" rx="1" height="2.65" width="29.14" y="404.72" x="143.58955"/>
  <circle id="svg_224" fill="#fff" r="9.27" cy="713.31" cx="154.06"/>
  <rect id="svg_225" opacity="0.1" height="74.87" width="99.34" y="438.59" x="102.84289"/>
  <rect id="svg_226" fill="#fff" height="74.87" width="99.34" y="522.82" x="105.05"/>
  <rect id="svg_227" opacity="0.2" fill="#6c63ff" height="18.72" width="33.11" y="529.3" x="114.77"/>
  <rect id="svg_228" fill="#e6e8ec" height="4.32" width="38.87" y="529.3" x="155.8"/>
  <rect id="svg_229" fill="#e6e8ec" height="4.32" width="27.36" y="536.5" x="155.8"/>
  <rect id="svg_230" fill="#e6e8ec" height="4.32" width="38.87" y="543.69" x="155.8"/>
  <rect id="svg_231" fill="#e6e8ec" height="4.32" width="79.91" y="550.89" x="114.77"/>
  <rect id="svg_232" fill="#e6e8ec" height="4.32" width="79.91" y="558.09" x="114.77"/>
  <rect id="svg_233" fill="#e6e8ec" height="4.32" width="79.91" y="565.29" x="114.77"/>
  <rect id="svg_234" fill="#e6e8ec" height="4.32" width="73.43" y="572.49" x="114.77"/>
  <rect id="svg_235" fill="#e6e8ec" height="4.32" width="79.91" y="579.69" x="114.77"/>
  <rect id="svg_236" fill="#e6e8ec" height="4.32" width="79.91" y="586.89" x="114.77"/>
  <rect id="svg_237" fill="#fff" height="74.87" width="99.34" y="607.22" x="105.05"/>
  <rect id="svg_238" opacity="0.2" fill="#6c63ff" height="18.72" width="33.11" y="613.7" x="114.77"/>
  <rect id="svg_239" fill="#e6e8ec" height="4.32" width="38.87" y="613.7" x="155.8"/>
  <rect id="svg_240" fill="#e6e8ec" height="4.32" width="27.36" y="620.9" x="155.8"/>
  <rect id="svg_241" fill="#e6e8ec" height="4.32" width="38.87" y="628.1" x="155.8"/>
  <rect id="svg_242" fill="#e6e8ec" height="4.32" width="79.91" y="635.3" x="114.77"/>
  <rect id="svg_243" fill="#e6e8ec" height="4.32" width="79.91" y="642.5" x="114.77"/>
  <rect id="svg_244" fill="#e6e8ec" height="4.32" width="79.91" y="649.7" x="114.77"/>
  <rect id="svg_245" fill="#e6e8ec" height="4.32" width="73.43" y="656.9" x="114.77"/>
  <rect id="svg_246" fill="#e6e8ec" height="4.32" width="79.91" y="664.09" x="114.77"/>
  <rect id="svg_247" fill="#e6e8ec" height="4.32" width="79.91" y="671.29" x="114.77"/>
  <path id="svg_249" fill="#f7c4a7" d="m413.58447,604.98747s-11.54,-4.86 -20.64,-8.5s-3.64,8.5 -3.64,8.5s15.18,4.25 15.18,4.86s12.75,1.21 12.75,1.21l-3.65,-6.07z"/>
  <path id="svg_250" opacity="0.05" d="m413.58447,604.98747s-11.54,-4.86 -20.64,-8.5s-3.64,8.5 -3.64,8.5s15.18,4.25 15.18,4.86s12.75,1.21 12.75,1.21l-3.65,-6.07z"/>
  <rect id="svg_263" fill="#fff" height="62.92" width="83.48" y="551.64747" x="350.60447"/>
  <rect id="svg_264" opacity="0.2" fill="#6c63ff" height="15.73" width="27.83" y="557.09747" x="358.77447"/>
  <rect id="svg_265" fill="#e6e8ec" height="3.63" width="32.67" y="557.09747" x="393.25447"/>
  <rect id="svg_266" fill="#e6e8ec" height="3.63" width="22.99" y="563.14747" x="393.25447"/>
  <rect id="svg_267" fill="#e6e8ec" height="3.63" width="32.67" y="569.19747" x="393.25447"/>
  <rect id="svg_268" fill="#e6e8ec" height="3.63" width="67.15" y="575.24747" x="358.77447"/>
  <rect id="svg_269" fill="#e6e8ec" height="3.63" width="67.15" y="581.29747" x="358.77447"/>
  <rect id="svg_270" fill="#e6e8ec" height="3.63" width="67.15" y="587.34747" x="358.77447"/>
  <rect id="svg_271" fill="#e6e8ec" height="3.63" width="61.71" y="593.39747" x="358.77447"/>
  <rect id="svg_272" fill="#e6e8ec" height="3.63" width="67.15" y="599.44747" x="358.23393"/>
  <rect id="svg_273" fill="#e6e8ec" height="3.63" width="67.15" y="605.49747" x="358.23393"/>
  <path id="svg_303" opacity="0.1" d="m178.02955,506.66l4.54,0.3l0,-11l-6,-1.08c2.11,2.8 2.04,7.66 1.46,11.78z"/>
  <rect id="svg_314" fill="#fff" height="74.87" width="99.34" y="437.96866" x="103.24816"/>
  <rect id="svg_315" opacity="0.2" fill="#6c63ff" height="18.72" width="33.11" y="444.44866" x="112.96816"/>
  <rect id="svg_316" fill="#e6e8ec" height="4.32" width="38.87" y="444.44866" x="153.99816"/>
  <rect id="svg_317" fill="#e6e8ec" height="4.32" width="27.36" y="451.64866" x="153.99816"/>
  <rect id="svg_318" fill="#e6e8ec" height="4.32" width="38.87" y="458.84866" x="153.99816"/>
  <rect id="svg_319" fill="#e6e8ec" height="4.32" width="79.91" y="466.04866" x="112.96816"/>
  <rect id="svg_320" fill="#e6e8ec" height="4.32" width="79.91" y="473.24866" x="112.96816"/>
  <rect id="svg_321" fill="#e6e8ec" height="4.32" width="79.91" y="479.89822" x="113.5086"/>
  <rect id="svg_322" fill="#e6e8ec" height="4.32" width="73.43" y="487.09822" x="113.5086"/>
  <rect id="svg_323" fill="#e6e8ec" height="4.32" width="79.91" y="494.29822" x="113.5086"/>
  <rect id="svg_324" fill="#e6e8ec" height="4.32" width="79.91" y="501.49822" x="113.5086"/>
  <path id="svg_326" opacity="0.1" d="m248.07,545.73l7.34,1.55l-3.94,-11l-2.74,-0.69a43.77,43.77 0 0 0 -0.66,10.14z"/>
  <path id="svg_335" fill="#fdc2cc" d="m1003.86,382.53s-40.73,5.66 -49.22,4l-22.63,-21.5s-21.5,16.41 12.45,27.15l63.36,7.35l-3.96,-17z"/>
  <path id="svg_336" opacity="0.05" d="m1003.86,382.53s-40.73,5.66 -49.22,4l-22.63,-21.5s-21.5,16.41 12.45,27.15l63.36,7.35l-3.96,-17z"/>
  <rect id="svg_352" fill="url(#dd1dbd67-1519-4b37-9c1d-ca278a6685f4)" height="144.2" width="191.35" y="300.43" x="821.62"/>
  <rect id="svg_353" fill="#fff" height="137.74" width="182.77" y="303.66" x="825.91"/>
  <rect id="svg_354" opacity="0.2" fill="#6c63ff" height="34.43" width="60.92" y="315.58" x="843.79"/>
  <rect id="svg_355" fill="#e6e8ec" height="7.95" width="71.52" y="315.58" x="919.28"/>
  <rect id="svg_356" fill="#e6e8ec" height="7.95" width="50.33" y="328.83" x="919.28"/>
  <rect id="svg_357" fill="#e6e8ec" height="7.95" width="71.52" y="342.07" x="919.28"/>
  <rect id="svg_358" fill="#e6e8ec" height="7.95" width="147.01" y="355.31" x="843.79"/>
  <rect id="svg_359" fill="#e6e8ec" height="7.95" width="147.01" y="368.56" x="843.79"/>
  <rect id="svg_360" fill="#e6e8ec" height="7.95" width="147.01" y="381.8" x="843.79"/>
  <rect id="svg_361" fill="#e6e8ec" height="7.95" width="135.09" y="395.05" x="843.79"/>
  <rect id="svg_362" fill="#e6e8ec" height="7.95" width="147.01" y="408.29" x="843.79"/>
  <rect id="svg_363" fill="#e6e8ec" height="7.95" width="147.01" y="421.53" x="843.79"/>
 </g>
</svg>