<svg width="888" height="651.93175" xmlns="http://www.w3.org/2000/svg">
 <title>design_notes</title>

 <g>
  <title>background</title>
  <rect fill="none" id="canvas_background" height="602" width="802" y="-1" x="-1"/>
 </g>
 <g>
  <title>Layer 1</title>
  <rect id="svg_15" fill="#e6e6e6" height="412.35762" width="643.86161" y="112.06809" x="111.11573"/>
  <rect id="svg_16" fill="#fff" height="336.24258" width="607.03946" y="163.78802" x="129.52681"/>
  <rect id="svg_17" fill="#6c63ff" height="27.3536" width="643.86161" y="111.70308" x="110.84081"/>
  <circle id="svg_18" fill="#fff" r="5.06978" cy="125.68769" cx="131.16781"/>
  <circle id="svg_19" fill="#fff" r="5.06978" cy="125.68769" cx="150.41142"/>
  <circle id="svg_20" fill="#fff" r="5.06978" cy="125.68769" cx="169.65503"/>
  <rect id="svg_21" fill="#e6e6e6" height="266.46676" width="155.98054" y="198.67592" x="184.68466"/>
  <rect id="svg_22" fill="#6c63ff" height="73.34799" width="129.98379" y="198.67592" x="367.59042"/>
  <rect id="svg_23" fill="#e6e6e6" height="78.91873" width="129.98379" y="292.44994" x="367.59042"/>
  <rect id="svg_24" fill="#e6e6e6" height="73.34799" width="129.98379" y="391.79469" x="367.59042"/>
  <rect id="svg_25" fill="#e6e6e6" height="116.12476" width="155.98054" y="198.67592" x="525.42787"/>
  <rect id="svg_26" fill="#6c63ff" height="116.12476" width="155.98054" y="349.01793" x="525.42787"/>
  <polygon id="svg_27" fill="#3f3d56" points="433.9213218688965,231.83210802078247 431.8853416442871,231.29110765457153 476.31933212280273,64.13709688186646 734.0573387145996,64.13709688186646 734.0573387145996,66.24309587478638 477.9383201599121,66.24309587478638 433.9213218688965,231.83210802078247 "/>
  <path id="svg_28" fill="#3f3d56" d="m755.11758,87.30259a22.11275,22.11275 0 1 1 22.11275,-22.11275a22.13792,22.13792 0 0 1 -22.11275,22.11275zm0,-42.11952a20.00678,20.00678 0 1 0 20.00677,20.00677a20.02953,20.02953 0 0 0 -20.00677,-20.00677z"/>
  <circle id="svg_29" fill="#6c63ff" r="8.4239" cy="65.18985" cx="755.11758"/>
  <polygon id="svg_30" fill="#3f3d56" points="562.1773338317871,573.7831120491028 304.4383201599121,573.7831120491028 304.4383201599121,571.6770939826965 560.5583152770996,571.6770939826965 604.5752830505371,406.0870976448059 606.6112937927246,406.6280827522278 562.1773338317871,573.7831120491028 "/>
  <path id="svg_31" fill="#3f3d56" d="m283.37893,594.84284a22.11275,22.11275 0 1 1 22.11275,-22.11275a22.13792,22.13792 0 0 1 -22.11275,22.11275zm0,-42.11952a20.00678,20.00678 0 1 0 20.00677,20.00677a20.02953,20.02953 0 0 0 -20.00677,-20.00677z"/>
  <circle id="svg_32" fill="#6c63ff" r="8.4239" cy="572.7301" cx="283.37893"/>
 </g>
</svg>