<svg width="704" height="810.61701" xmlns="http://www.w3.org/2000/svg">
 <title>modern_design</title>

 <g>
  <title>background</title>
  <rect fill="none" id="canvas_background" height="812.61701" width="706" y="-1" x="-1"/>
 </g>
 <g>
  <title>Layer 1</title>
  <ellipse id="svg_1" fill="#e6e6e6" ry="18" rx="352" cy="767.47505" cx="357.26297"/>
  <path id="svg_16" fill="#3f3d56" d="m554.31117,216.8053l-3.99878,0l0,-109.54533a63.40185,63.40185 0 0 0 -63.40205,-63.40192l-232.08644,0a63.40185,63.40185 0 0 0 -63.402,63.40192l0,600.97418a63.40185,63.40185 0 0 0 63.402,63.40193l232.08644,0a63.40185,63.40185 0 0 0 63.40205,-63.40193l0,-413.4526l3.99878,0l0,-77.97625z"/>
  <path id="svg_17" fill="#fff" d="m489.46866,60.35303l-30.295,0a22.49484,22.49484 0 0 1 -20.82713,30.99052l-132.95946,0a22.49484,22.49484 0 0 1 -20.82714,-30.99056l-28.29557,0a47.3478,47.3478 0 0 0 -47.34787,47.34774l0,600.09256a47.34781,47.34781 0 0 0 47.34787,47.34781l233.2043,0a47.34781,47.34781 0 0 0 47.34786,-47.34781l0,-600.09252a47.3478,47.3478 0 0 0 -47.34786,-47.34774z"/>
  <rect stroke="null" id="svg_28" fill="#e6e6e6" height="3.58259" width="143.92807" y="725.82288" x="297.93768"/>
 </g>
</svg>